<svg xmlns="http://www.w3.org/2000/svg" version="1.1" xmlns:xlink="http://www.w3.org/1999/xlink" xmlns:svgjs="http://svgjs.dev/svgjs" width="2000" height="434" viewBox="0 0 2000 434"><g transform="matrix(1,0,0,1,3.0924224690689925,4.503758362251347)"><svg viewBox="0 0 396 86" data-background-color="#575c5f" preserveAspectRatio="xMidYMid meet" height="434" width="2000" xmlns="http://www.w3.org/2000/svg" xmlns:xlink="http://www.w3.org/1999/xlink"><g id="tight-bounds" transform="matrix(1,0,0,1,0.24448927000446474,-0.0333438246571518)"><svg viewBox="0 0 395.52 86.06668764931422" height="86.06668764931422" width="395.52"><g><svg viewBox="0 0 524.9073676576904 114.22188121212123" height="86.06668764931422" width="395.52"><g transform="matrix(1,0,0,1,129.3873676576904,15.786092121212128)"><svg viewBox="0 0 395.52 82.64969696969698" height="82.64969696969698" width="395.52"><g id="textblocktransform"><svg viewBox="0 0 395.52 82.64969696969698" height="82.64969696969698" width="395.52" id="textblock"><g><svg viewBox="0 0 395.52 82.64969696969698" height="82.64969696969698" width="395.52"><g transform="matrix(1,0,0,1,0,0)"><svg width="395.52" viewBox="2 -36.5 237.57 49.65" height="82.64969696969698" data-palette-color="#dedad7"><g class="wordmark-text-0" data-fill-palette-color="primary" id="text-0"><path d="M9.65-23L9.65-23Q12.75-23 14.48-22.38 16.2-21.75 16.2-21.75L16.2-21.75Q16.2-20.65 16.25-19.25 16.3-17.85 16.5-16.8L16.5-16.8 15.2-16.35Q14.55-19 13.35-19.95 12.15-20.9 10.25-20.9L10.25-20.9Q8.55-20.9 7.53-19.95 6.5-19 6.5-17.7L6.5-17.7Q6.5-16.8 7.05-15.83 7.6-14.85 9.1-14L9.1-14 14.2-11.2Q15.75-10.35 16.63-9.05 17.5-7.75 17.5-5.85L17.5-5.85Q17.5-4.35 16.7-2.9 15.9-1.45 14.13-0.5 12.35 0.45 9.5 0.45L9.5 0.45Q8 0.45 6.08 0.15 4.15-0.15 2-0.8L2-0.8Q2.15-1.55 2.27-2.63 2.4-3.7 2.5-4.78 2.6-5.85 2.6-6.55L2.6-6.55 3.9-7Q4.35-5.25 4.8-3.98 5.25-2.7 6.23-2.05 7.2-1.4 9.2-1.4L9.2-1.4Q11.35-1.4 12.45-2.45 13.55-3.5 13.55-4.8L13.55-4.8Q13.55-5.75 12.98-6.65 12.4-7.55 11.2-8.2L11.2-8.2 5.8-11.2Q4.1-12.1 3.3-13.55 2.5-15 2.5-16.55L2.5-16.55Q2.5-18.15 3.33-19.63 4.15-21.1 5.75-22.05 7.35-23 9.65-23ZM27.3-1.15L27.3-1.15Q27.35 3.55 27.4 6.1 27.45 8.65 27.52 9.65 27.6 10.65 27.6 10.75L27.6 10.75Q27.65 11 28.3 11.2 28.95 11.4 29.77 11.53 30.6 11.65 31.1 11.7L31.1 11.7 30.95 13.15Q29.75 13.05 28.15 13.03 26.55 13 25.25 13L25.25 13Q24 13 22.27 13.03 20.55 13.05 19.35 13.15L19.35 13.15 19.5 11.7Q20.05 11.65 20.82 11.53 21.6 11.4 22.25 11.2 22.9 11 22.95 10.75L22.95 10.75Q22.95 10.75 23.05 10.1 23.15 9.45 23.25 7.75 23.35 6.05 23.45 2.98 23.55-0.1 23.55-4.9L23.55-4.9Q23.55-9.75 23.5-12.7 23.45-15.65 23.35-17.2 23.25-18.75 23.2-19.28 23.15-19.8 23.15-19.8L23.15-19.8 19.95-20.75 19.85-22.05Q21.2-22.05 23.17-22.33 25.15-22.6 26.4-22.95L26.4-22.95 27.35-22.5 27.35-20.05Q29.25-21.5 31.37-22.25 33.5-23 35.5-23L35.5-23Q37.9-23 39.9-21.88 41.9-20.75 43.12-18.38 44.35-16 44.35-12.15L44.35-12.15Q44.35-7.85 42.9-5.05 41.45-2.25 39-0.9 36.55 0.45 33.5 0.45L33.5 0.45Q31.95 0.45 30.37 0.05 28.8-0.35 27.3-1.15ZM27.3-18.3L27.3-18.3 27.3-3.05Q28.6-2.6 29.75-2.4 30.9-2.2 31.9-2.2L31.9-2.2Q35.05-2.2 36.82-3.63 38.6-5.05 39.35-7.28 40.1-9.5 40.1-11.85L40.1-11.85Q40.1-15.4 38.65-17.63 37.2-19.85 33.5-19.85L33.5-19.85Q31.75-19.85 29.95-19.35 28.15-18.85 27.3-18.3ZM66.55-4.15L66.55-4.15 67.15-2.65Q65.59-1.4 63.52-0.48 61.45 0.45 58.95 0.45L58.95 0.45Q55.25 0.45 52.87-1.03 50.5-2.5 49.37-4.95 48.25-7.4 48.25-10.35L48.25-10.35Q48.25-12.75 48.92-15 49.6-17.25 51-19.05 52.4-20.85 54.7-21.93 57-23 60.2-23L60.2-23Q62-23 63.75-22.15 65.5-21.3 66.65-19.43 67.8-17.55 67.8-14.45L67.8-14.45 66.09-12.4Q65.9-12.45 65.42-12.45 64.95-12.45 64.25-12.45L64.25-12.45Q63-12.45 61.3-12.43 59.6-12.4 57.85-12.35 56.1-12.3 54.65-12.23 53.2-12.15 52.5-12.1L52.5-12.1 52.5-11.65Q52.5-6.95 54.47-4.75 56.45-2.55 59.6-2.55L59.6-2.55Q61.45-2.55 63.09-2.95 64.75-3.35 66.55-4.15ZM63.3-16L63.3-16Q63.3-17.7 62.62-18.68 61.95-19.65 60.97-20.1 60-20.55 59.1-20.55L59.1-20.55Q56.65-20.55 55-18.63 53.35-16.7 52.8-14.15L52.8-14.15 63.15-14.55Q63.3-15.3 63.3-16ZM95.19-1.3L95.19-1.3 95.04 0.15Q94.19 0.15 92.89 0.2 91.59 0.25 90.39 0.33 89.19 0.4 88.59 0.45L88.59 0.45 79.34-12.45 77.79-11.3Q77.89-6.4 78.04-4.45 78.19-2.5 78.19-2.4L78.19-2.4Q78.24-2.15 78.82-1.9 79.39-1.65 80.14-1.5 80.89-1.35 81.39-1.3L81.39-1.3 81.24 0.15Q80.04 0.05 78.59 0.03 77.14 0 75.84 0L75.84 0Q74.59 0 73.02 0.03 71.44 0.05 70.24 0.15L70.24 0.15 70.39-1.3Q70.94-1.35 71.64-1.5 72.34-1.65 72.92-1.9 73.49-2.15 73.54-2.4L73.54-2.4Q73.54-2.4 73.62-3.13 73.69-3.85 73.77-5.63 73.84-7.4 73.92-10.53 73.99-13.65 73.99-18.45L73.99-18.45Q73.99-23.3 73.94-26.25 73.89-29.2 73.79-30.75 73.69-32.3 73.64-32.83 73.59-33.35 73.59-33.35L73.59-33.35 70.39-34.3 70.29-35.6Q71.19-35.6 72.42-35.73 73.64-35.85 74.84-36.08 76.04-36.3 76.89-36.5L76.89-36.5 77.84-36.05Q77.84-36.05 77.79-31.4 77.74-26.75 77.74-17.6L77.74-17.6 77.74-13.6 85.74-19.6Q86.09-19.9 86.09-20.2L86.09-20.2Q86.09-20.6 85.39-20.95 84.69-21.3 83.09-21.35L83.09-21.35 83.24-22.8Q84.29-22.75 84.94-22.73 85.59-22.7 86.32-22.68 87.04-22.65 88.24-22.65L88.24-22.65Q90.09-22.65 91.17-22.7 92.24-22.75 93.79-22.8L93.79-22.8 93.94-21.35Q91.89-21.05 90.67-20.45 89.44-19.85 88.64-19.3L88.64-19.3 82.44-14.7 91.84-2.15Q92.29-1.5 93.34-1.45 94.39-1.4 95.19-1.3ZM110.74-3.55L110.74-3.55 111.34-1.9Q109.64-0.8 108.09-0.18 106.54 0.45 104.94 0.45L104.94 0.45Q102.79 0.45 101.27-0.6 99.74-1.65 99.74-4.55L99.74-4.55Q99.74-4.55 99.77-5.78 99.79-7 99.79-8.78 99.79-10.55 99.79-12.15L99.79-12.15Q99.79-14.65 99.77-16.73 99.74-18.8 99.69-20.3L99.69-20.3Q98.19-20.25 97.34-20.25 96.49-20.25 96.49-20.25L96.49-20.25 96.34-20.8 97.49-22.75Q97.49-22.75 98.02-22.68 98.54-22.6 99.59-22.55L99.59-22.55Q99.59-23.55 99.54-24.63 99.49-25.7 99.44-26.43 99.39-27.15 99.39-27.15L99.39-27.15 102.69-30.1 103.64-29.65Q103.64-29.65 103.61-28.58 103.59-27.5 103.56-25.9 103.54-24.3 103.54-22.6L103.54-22.6Q106.94-22.6 108.91-22.63 110.89-22.65 110.89-22.65L110.89-22.65 111.14-22.05 109.34-20.05Q109.34-20.05 107.99-20.15 106.64-20.25 103.54-20.3L103.54-20.3 103.54-13.6Q103.54-10.6 103.56-8.65 103.59-6.7 103.69-4.65L103.69-4.65Q103.79-3.4 104.54-2.9 105.29-2.4 106.34-2.4L106.34-2.4Q107.49-2.4 108.72-2.8 109.94-3.2 110.74-3.55ZM133.39-2.6L133.39-2.6 133.89-1.3Q131.99 0.45 129.74 0.45L129.74 0.45Q128.49 0.45 127.49-0.33 126.49-1.1 126.24-2.8L126.24-2.8Q124.39-1.4 122.56-0.48 120.74 0.45 118.64 0.45L118.64 0.45Q116.64 0.45 115.06-0.8 113.49-2.05 113.49-4.75L113.49-4.75Q113.49-6.55 114.64-8.28 115.79-10 118.56-11.23 121.34-12.45 126.09-12.75L126.09-12.75 126.09-17.4Q126.09-18.85 125.01-19.58 123.94-20.3 122.44-20.3L122.44-20.3Q120.24-20.3 119.19-19.25 118.14-18.2 118.14-16.65L118.14-16.65Q118.14-16.05 118.29-15.3L118.29-15.3 117.19-14.8Q116.14-15.35 115.29-16.32 114.44-17.3 114.44-17.7L114.44-17.7Q114.44-18.05 115.06-18.9 115.69-19.75 116.94-20.7 118.19-21.65 119.99-22.33 121.79-23 124.14-23L124.14-23Q125.69-23 126.96-22.55 128.24-22.1 128.99-20.95 129.74-19.8 129.74-17.65L129.74-17.65Q129.74-17.15 129.76-15.85 129.79-14.55 129.84-12.85 129.89-11.15 129.91-9.43 129.94-7.7 129.99-6.4 130.04-5.1 130.04-4.6L130.04-4.6Q130.09-3.25 130.61-2.73 131.14-2.2 131.84-2.2L131.84-2.2Q132.14-2.2 132.54-2.3 132.94-2.4 133.39-2.6ZM126.09-4.7L126.09-4.7 126.09-10.5Q121.69-10.4 119.69-8.85 117.69-7.3 117.69-5.55L117.69-5.55Q117.69-4.05 118.59-3.3 119.49-2.55 120.94-2.55L120.94-2.55Q122.04-2.55 123.36-3.08 124.69-3.6 126.09-4.7ZM154.83-4.5L154.83-4.5 155.44-2.85Q153.73-1.5 151.56-0.53 149.38 0.45 146.58 0.45L146.58 0.45Q143.08 0.45 140.76-1.03 138.44-2.5 137.31-5.05 136.19-7.6 136.19-10.75L136.19-10.75Q136.19-13 136.91-15.18 137.63-17.35 139.06-19.13 140.48-20.9 142.61-21.95 144.73-23 147.58-23L147.58-23Q149.73-23 151.44-22.28 153.13-21.55 154.13-20.73 155.13-19.9 155.13-19.6L155.13-19.6Q155.13-18.95 154.83-17.88 154.53-16.8 153.94-15.95L153.94-15.95 152.73-15.95Q152.44-16.8 151.73-17.8 151.03-18.8 149.88-19.55 148.73-20.3 147.03-20.3L147.03-20.3Q144.83-20.3 143.38-18.93 141.94-17.55 141.26-15.43 140.58-13.3 140.58-11.1L140.58-11.1Q140.58-6.55 142.63-4.53 144.69-2.5 147.88-2.5L147.88-2.5Q149.48-2.5 151.38-3.03 153.28-3.55 154.83-4.5ZM165.18-17.6L165.18-17.6Q165.18-13.1 165.26-10.25 165.33-7.4 165.43-5.75 165.53-4.1 165.61-3.38 165.68-2.65 165.73-2.4L165.73-2.4Q165.78-2.15 166.43-1.9 167.08-1.65 167.91-1.5 168.73-1.35 169.23-1.3L169.23-1.3 169.08 0.15Q167.88 0.05 166.28 0.03 164.68 0 163.38 0L163.38 0Q162.13 0 160.41 0.03 158.68 0.05 157.48 0.15L157.48 0.15 157.63-1.3Q158.18-1.35 158.96-1.5 159.73-1.65 160.38-1.9 161.03-2.15 161.08-2.4L161.08-2.4Q161.08-2.4 161.13-3.13 161.18-3.85 161.26-5.63 161.33-7.4 161.38-10.53 161.43-13.65 161.43-18.5L161.43-18.5Q161.43-23.3 161.38-26.25 161.33-29.2 161.23-30.75 161.13-32.3 161.08-32.83 161.03-33.35 161.03-33.35L161.03-33.35 157.83-34.3 157.73-35.6Q158.63-35.6 159.86-35.73 161.08-35.85 162.28-36.08 163.48-36.3 164.33-36.5L164.33-36.5 165.28-36.05Q165.28-36.05 165.23-31.4 165.18-26.75 165.18-17.6ZM190.28-4.15L190.28-4.15 190.88-2.65Q189.33-1.4 187.25-0.48 185.18 0.45 182.68 0.45L182.68 0.45Q178.98 0.45 176.6-1.03 174.23-2.5 173.1-4.95 171.98-7.4 171.98-10.35L171.98-10.35Q171.98-12.75 172.66-15 173.33-17.25 174.73-19.05 176.13-20.85 178.43-21.93 180.73-23 183.93-23L183.93-23Q185.73-23 187.48-22.15 189.23-21.3 190.38-19.43 191.53-17.55 191.53-14.45L191.53-14.45 189.83-12.4Q189.63-12.45 189.16-12.45 188.68-12.45 187.98-12.45L187.98-12.45Q186.73-12.45 185.03-12.43 183.33-12.4 181.58-12.35 179.83-12.3 178.38-12.23 176.93-12.15 176.23-12.1L176.23-12.1 176.23-11.65Q176.23-6.95 178.2-4.75 180.18-2.55 183.33-2.55L183.33-2.55Q185.18-2.55 186.83-2.95 188.48-3.35 190.28-4.15ZM187.03-16L187.03-16Q187.03-17.7 186.35-18.68 185.68-19.65 184.7-20.1 183.73-20.55 182.83-20.55L182.83-20.55Q180.38-20.55 178.73-18.63 177.08-16.7 176.53-14.15L176.53-14.15 186.88-14.55Q187.03-15.3 187.03-16ZM197.18 0.45L197.18 0.45Q196.08 0.45 195.33-0.3 194.58-1.05 194.58-2.3L194.58-2.3Q194.58-3.45 195.33-4.17 196.08-4.9 197.18-4.9L197.18-4.9Q198.28-4.9 199.05-4.17 199.83-3.45 199.83-2.3L199.83-2.3Q199.83-1.05 199.05-0.3 198.28 0.45 197.18 0.45ZM209.38-22.95L209.38-22.95 210.32-22.5Q210.32-21.85 210.3-20.5 210.27-19.15 210.27-17.53 210.27-15.9 210.25-14.28 210.22-12.65 210.22-11.45L210.22-11.45Q210.22-7.8 210.35-5.85 210.47-3.9 210.6-3.15 210.72-2.4 210.72-2.4L210.72-2.4Q210.77-2.15 211.45-1.9 212.13-1.65 212.95-1.5 213.77-1.35 214.27-1.3L214.27-1.3 214.13 0.15Q212.92 0.05 211.3 0.03 209.67 0 208.38 0L208.38 0Q207.13 0 205.38 0.03 203.63 0.05 202.42 0.15L202.42 0.15 202.57-1.3Q203.13-1.35 203.92-1.5 204.72-1.65 205.38-1.9 206.02-2.15 206.07-2.4L206.07-2.4Q206.07-2.4 206.17-3.15 206.27-3.9 206.38-5.85 206.47-7.8 206.47-11.45L206.47-11.45Q206.47-15.1 206.38-16.88 206.27-18.65 206.17-19.23 206.07-19.8 206.07-19.8L206.07-19.8 202.88-20.75 202.77-22.05Q203.67-22.05 204.9-22.18 206.13-22.3 207.32-22.53 208.52-22.75 209.38-22.95ZM208.22-28.15L208.22-28.15Q207.13-28.15 206.38-28.93 205.63-29.7 205.63-30.85L205.63-30.85Q205.63-31.95 206.38-32.7 207.13-33.45 208.22-33.45L208.22-33.45Q209.32-33.45 210.07-32.7 210.82-31.95 210.82-30.85L210.82-30.85Q210.82-29.7 210.07-28.93 209.32-28.15 208.22-28.15ZM239.57-12.15L239.57-12.15Q239.57-9.75 238.9-7.5 238.22-5.25 236.82-3.45 235.42-1.65 233.15-0.6 230.87 0.45 227.62 0.45L227.62 0.45Q222.02 0.45 219.52-2.53 217.02-5.5 217.02-10.3L217.02-10.3Q217.02-12.7 217.7-14.95 218.37-17.2 219.77-19.03 221.17-20.85 223.47-21.93 225.77-23 228.97-23L228.97-23Q232.72-23 235.05-21.63 237.37-20.25 238.47-17.8 239.57-15.35 239.57-12.15ZM235.27-10.3L235.27-10.3Q235.27-12.85 234.7-15.2 234.12-17.55 232.65-19.05 231.17-20.55 228.42-20.55L228.42-20.55Q226.22-20.55 224.82-19.53 223.42-18.5 222.67-17 221.92-15.5 221.62-14 221.32-12.5 221.32-11.5L221.32-11.5Q221.32-9.05 221.97-6.88 222.62-4.7 224.12-3.33 225.62-1.95 228.17-1.95L228.17-1.95Q230.17-1.95 231.55-2.83 232.92-3.7 233.75-5.05 234.57-6.4 234.92-7.83 235.27-9.25 235.27-10.3Z" fill="#dedad7" data-fill-palette-color="primary"></path></g></svg></g></svg></g></svg></g></svg></g><g><svg viewBox="0 0 109.87575779587222 114.22188121212123" height="114.22188121212123" width="109.87575779587222"><g><svg xmlns="http://www.w3.org/2000/svg" xmlns:xlink="http://www.w3.org/1999/xlink" version="1.1" x="0" y="0" viewBox="18.323 17.069 63.355 65.861" enable-background="new 0 0 100 100" xml:space="preserve" height="114.22188121212123" width="109.87575779587222" class="icon-icon-0" data-fill-palette-color="accent" id="icon-0"><g fill="#b4bfc5" data-fill-palette-color="accent"><path d="M41.086 21.513C41.258 21.123 41.357 20.694 41.357 20.24 41.357 18.492 39.935 17.07 38.187 17.07S35.017 18.492 35.017 20.24 36.439 23.41 38.187 23.41C38.562 23.41 38.917 23.333 39.251 23.213L63.56 49.258 49.885 76.608C49.825 76.605 49.768 76.59 49.707 76.59 47.959 76.59 46.537 78.012 46.537 79.76S47.959 82.93 49.707 82.93A3.174 3.174 0 0 0 52.877 79.76 3.14 3.14 0 0 0 52.12 77.729L66.184 49.599A1.25 1.25 0 0 0 65.98 48.187z" fill="#b4bfc5" data-fill-palette-color="accent"></path><path d="M58.506 49.599A1.25 1.25 0 0 0 58.272 48.157L31.527 21.412A3.1 3.1 0 0 0 31.757 20.24C31.757 18.492 30.335 17.07 28.587 17.07S25.417 18.492 25.417 20.24 26.839 23.41 28.587 23.41C29.002 23.41 29.395 23.325 29.758 23.18L44.428 37.85C44.399 37.874 44.363 37.884 44.336 37.911L31.114 51.134 24.432 44.452A3.2 3.2 0 0 0 24.662 43.28 3.173 3.173 0 0 0 21.493 40.11 3.174 3.174 0 0 0 18.323 43.28 3.174 3.174 0 0 0 21.493 46.45C21.907 46.45 22.301 46.365 22.664 46.22L29.347 52.902 22.258 59.991C22.17 60.079 22.116 60.184 22.06 60.288A1.23 1.23 0 0 0 21.578 61.25V67.268A3 3 0 0 0 20.586 67.918 3.175 3.175 0 0 0 20.586 72.401C21.185 73 21.981 73.33 22.828 73.33S24.471 73 25.069 72.401 25.998 71.006 25.998 70.16 25.668 68.517 25.069 67.918A3 3 0 0 0 24.078 67.268V61.706L46.106 39.678C46.133 39.651 46.143 39.615 46.167 39.586L48.9 42.32 27.704 63.516C27.696 63.524 27.694 63.535 27.686 63.543A1.25 1.25 0 0 0 27.338 64.401V74.949A3 3 0 0 0 26.346 75.599 3.173 3.173 0 0 0 26.346 80.082 3.15 3.15 0 0 0 28.588 81.01C29.435 81.01 30.231 80.681 30.829 80.082A3.173 3.173 0 0 0 30.829 75.599 3 3 0 0 0 29.838 74.949V64.917L50.668 44.087 55.867 49.286 42.206 76.608C42.145 76.605 42.088 76.59 42.027 76.59 40.279 76.59 38.857 78.012 38.857 79.76S40.279 82.93 42.027 82.93A3.174 3.174 0 0 0 45.197 79.76 3.14 3.14 0 0 0 44.44 77.729z" fill="#b4bfc5" data-fill-palette-color="accent"></path><path d="M78.508 74.67A3 3 0 0 0 77.766 74.767L73.998 69.744V49.04C73.998 48.727 73.88 48.426 73.669 48.195L65.461 39.241 71.575 33.127A3.1 3.1 0 0 0 72.747 33.358 3.173 3.173 0 0 0 75.916 30.188 3.173 3.173 0 0 0 72.747 27.018 3.174 3.174 0 0 0 69.577 30.188C69.577 30.603 69.662 30.996 69.807 31.359L63.769 37.396 60.703 34.051 71.575 23.179C71.938 23.324 72.332 23.409 72.747 23.409 74.495 23.409 75.916 21.987 75.916 20.239S74.494 17.069 72.747 17.069A3.174 3.174 0 0 0 69.577 20.239C69.577 20.654 69.662 21.048 69.807 21.411L59.013 32.207 52.878 25.514V23.15A3.17 3.17 0 0 0 54.798 20.239 3.174 3.174 0 0 0 51.628 17.069 3.174 3.174 0 0 0 48.458 20.239C48.458 21.543 49.25 22.664 50.378 23.15V26C50.378 26.061 50.404 26.114 50.413 26.172 50.427 26.267 50.434 26.361 50.47 26.451 50.503 26.537 50.558 26.607 50.609 26.682 50.644 26.735 50.662 26.796 50.707 26.844L71.499 49.526V70.16C71.499 70.431 71.586 70.694 71.749 70.91L75.77 76.272A3.13 3.13 0 0 0 75.338 77.84 3.174 3.174 0 0 0 78.508 81.01C80.256 81.01 81.678 79.588 81.678 77.84S80.255 74.67 78.508 74.67" fill="#b4bfc5" data-fill-palette-color="accent"></path></g></svg></g></svg></g></svg></g><defs></defs></svg><rect width="395.52" height="86.06668764931422" fill="none" stroke="none" visibility="hidden"></rect></g></svg></g></svg>